<?xml version="1.0" encoding="UTF-8"?><svg id="b" xmlns="http://www.w3.org/2000/svg" width="273.97" height="320.981" viewBox="0 0 273.97 320.981"><defs><style>.e{fill:#fff;}.f{fill:#211715;}.g{fill:#645d5c;}</style></defs><g id="c"><g id="d"><path class="e" d="M101.807,318.581h-13.033c4.232-21.568,9.316-45.977,12.241-61.024h71.548c1.841,9.415,4.35,22.242,4.35,22.242,1.804,8.864,5.408,26.599,7.78,38.781h-82.887Z"/><path class="e" d="M176.46,69.17c1.312-1.262,3.076-1.731,4.583-1.672,3.28.13,4.669,1.925,5.266,2.978,1.781,3.144,1.683,8.924.465,12.495-.862,2.529-2.273,6.398-5.65,9.163-1.537,1.259-3.872,2.038-5.996,1.402-1.52,5.177-4.245,11.382-8.991,17.158-3.45,4.198-6.75,6.948-10.599,8.959-.002,2.984-.002,5.201-.002,5.201,0,1.11,0,2.32.41,3.4.55,1.42,1.29,2.65,2.48,3.61,2.52,2.03,5.11,3,8.3,4.2l2.664,1.051c-7.162,5.745-19.927,10.341-33.224,10.38-13.207-.039-25.889-4.573-33.079-10.263l2.969-1.169c3.19-1.2,5.78-2.17,8.3-4.2,1.19-.96,1.93-2.19,2.48-3.61.41-1.08.41-2.29.41-3.4,0-1.728,0-3.117-.002-4.253-4.255-2.136-8.085-5.47-11.731-9.907-4.827-5.874-7.563-12.191-9.068-17.42-2.083.531-4.329-.257-5.816-1.495-3.355-2.791-4.737-6.671-5.579-9.208-1.19-3.581-1.243-9.362.562-12.491.605-1.049,2.007-2.833,5.288-2.937,1.508-.048,3.267.435,4.57,1.708,0,0-6.818-35.51,41.735-35.51,45.04,0,39.255,35.828,39.255,35.828Z"/><path class="g" d="M89.078,35.141c-3.546,9.727-3.805,21.208-.189,32.32.567-.175,1.221-.29,1.974-.317,1.507-.054,3.269.422,4.576,1.69h0c2.401.19,4.761-.708,6.44-2.449l.033-.034c4.857-5.46,13.43-13.689,19.446-16.872.705-.373,1.612.132,1.897,1.321.276,1.149.275,2.021.185,2.847-.136,1.254,1.07,2.166,2.095,1.592,4.295-2.406,11.947-7.25,17.373-9.557l8.046.997c2.59,1.136,4.561,2.228,7.411,4.702,4.884,4.239,9.567,10.055,11.641,15.319h0c1.429,2.068,4.038,2.938,6.408,2.139l.015-.005c1.308-1.267,3.069-1.744,4.576-1.69.852.03,1.576.173,2.193.387,3.96-15.943,1.583-36.538-10.782-46.437l-5.383-5.645c-6.107-8.051-16.034-12.416-30.215-13.038-18.449-.624-32.068,7.632-38.096,15.32l1.203,1.309c-4.885,4.251-8.554,9.809-10.848,16.101Z"/><path class="f" d="M100.42,19.428c5.337-6.741,13.412-10.977,21.661-13.084,5.649-1.443,11.49-1.836,17.295-1.377,4.884.386,9.839,1.327,14.367,3.249,4.341,1.843,8.334,4.683,11.219,8.444.787,1.027,2.066,1.573,3.284.861,1.011-.591,1.655-2.249.861-3.284-2.965-3.867-6.643-7.031-10.997-9.251-4.965-2.531-10.365-3.852-15.87-4.531-11.614-1.432-23.727.471-33.969,6.277-4.224,2.394-8.217,5.479-11.244,9.302-.804,1.015-.991,2.403,0,3.394.835.835,2.585,1.022,3.394,0h0Z"/><path class="f" d="M91.204,66.825c-4.044-12.591-3.386-26.904,3.75-38.289,1.841-2.937,4.098-5.546,6.703-7.83,2.327-2.041-1.079-5.424-3.394-3.394-10.663,9.351-15.302,24.06-14.211,37.962.342,4.36,1.187,8.665,2.523,12.828.941,2.929,5.577,1.677,4.629-1.276h0Z"/><path class="f" d="M128.246,106.61c2.527,1.346,5.253,1.918,8.116,1.899,2.956-.019,5.901-.628,8.257-2.479.992-.78.877-2.589,0-3.394-1.052-.966-2.336-.832-3.394,0,.741-.583.238-.185.047-.061-.159.103-.324.198-.491.287-.207.109-.794.279-.1.073-.229.068-.45.175-.678.248-.62.201-1.255.331-1.897.437.355-.058.141-.019-.091.005-.186.019-.372.034-.559.046-.449.029-.899.041-1.348.038-.403-.002-.805-.016-1.207-.044-.185-.013-.369-.028-.553-.046-.09-.009-.761-.132-.178-.018-.597-.117-1.188-.221-1.772-.397-.248-.075-.49-.164-.735-.249-.582-.202.433.215-.093-.036-.304-.145-.603-.295-.901-.453-1.108-.59-2.662-.316-3.284.861-.588,1.113-.322,2.653.861,3.284h0Z"/><path class="f" d="M134.99,87.535c.347,1.333.679,2.687.878,4.051l-.086-.638c.024.187.034.371.015.559l.086-.638c-.013.087-.032.168-.061.251l.242-.573c-.026.059-.053.108-.088.162l.375-.486c-.041.051-.08.089-.131.13l.486-.375c-.101.066-.209.119-.318.17l.573-.242c-.175.074-.349.128-.536.158l.638-.086c-.169.02-.334.019-.503,0l.638.086c-.19-.027-.376-.073-.566-.099-.319-.1-.638-.114-.957-.043-.319.014-.617.109-.892.285-.498.291-.973.862-1.103,1.434-.14.614-.11,1.304.242,1.849.312.485.834,1.021,1.434,1.103.462.063.91.18,1.381.201.736.032,1.418-.197,2.073-.5.818-.379,1.462-1.136,1.678-2.018.184-.753.107-1.383-.019-2.137-.219-1.305-.517-2.598-.85-3.878-.151-.579-.589-1.134-1.103-1.434s-1.273-.429-1.849-.242c-1.252.405-2.015,1.65-1.676,2.952h0Z"/><path class="f" d="M114.087,75.978c-.671,2.198-.233,7.255,3.895,7.685,5.456-.033,5.747-6.147,3.91-9.021-1.504-2.353-5.926-3.332-7.805,1.336Z"/><path class="f" d="M157.782,75.978c.671,2.198.234,7.255-3.895,7.685-5.456-.033-5.747-6.147-3.91-9.021,1.504-2.353,5.926-3.332,7.805,1.336Z"/><path class="f" d="M170.72,22.791c9.798,7.947,12.42,21.671,11.736,33.666-.201,3.524-.73,7.003-1.57,10.432-.735,3,3.892,4.28,4.629,1.276,3.212-13.106,2.706-28.456-4.259-40.331-1.871-3.19-4.265-6.104-7.141-8.437-1.006-.816-2.411-.983-3.394,0-.843.843-1.012,2.573,0,3.394h0Z"/><path class="f" d="M149.743,48.753c4.029,1.78,7.295,4.402,10.33,7.576s5.981,6.936,7.619,11.011c.483,1.202,1.601,2.048,2.952,1.676,1.141-.314,2.162-1.743,1.676-2.952-1.942-4.833-5.049-9.098-8.61-12.872-3.338-3.539-7.076-6.609-11.545-8.584-1.185-.523-2.578-.346-3.284.861-.597,1.021-.331,2.757.861,3.284h0Z"/><path class="f" d="M103.609,68.049c4.791-5.366,10.088-10.645,16.046-14.712.617-.421,1.245-.828,1.889-1.208.141-.084.386-.186.518-.299.339-.291.374.097-.213-.07-.912-.259-.934-.813-.79.23.122.88-.117,1.754.062,2.63.222,1.088.866,2.086,1.836,2.663,1.898,1.128,3.637.132,5.307-.837,1.524-.884,3.038-1.786,4.559-2.677,3.675-2.153,7.378-4.325,11.296-6.011,1.191-.512,1.458-2.263.861-3.284-.72-1.231-2.088-1.375-3.284-.861-3.505,1.508-6.834,3.415-10.129,5.33-1.586.922-3.164,1.86-4.747,2.787-.67.393-1.341.784-2.016,1.168-.059.033-.484.266-.482.272l.528-.015c.352-.15.598-.069.74.243.726.262-.029.374.263.097.079-.075.04-.737.039-.805-.014-2.132-.636-4.758-2.911-5.516-1.838-.612-3.44.512-4.928,1.473-3.206,2.072-6.164,4.556-8.989,7.114-3.101,2.808-6.065,5.775-8.852,8.896-2.052,2.298,1.332,5.704,3.394,3.394h0Z"/><path class="f" d="M93.338,90.772c1.812,8.2,5.599,15.873,11.029,22.279,5.228,6.169,11.994,11.101,20.135,12.354,1.28.197,2.581-.324,2.952-1.676.312-1.137-.388-2.754-1.676-2.952-7.426-1.144-13.249-5.493-18.017-11.12-4.896-5.777-8.165-12.788-9.794-20.161-.666-3.015-5.295-1.739-4.629,1.276h0Z"/><path class="f" d="M173.683,89.496c-1.499,6.784-4.38,13.28-8.66,18.776-2.109,2.708-4.547,5.299-7.363,7.281-2.691,1.894-5.653,3.234-8.772,4.252-2.924.955-1.672,5.591,1.276,4.629,3.491-1.14,6.904-2.615,9.918-4.736,3.182-2.239,5.925-4.985,8.335-8.031,4.833-6.108,8.214-13.289,9.895-20.894.665-3.01-3.961-4.296-4.629-1.276h0Z"/><path class="f" d="M178.157,70.867c.939-.843,2.205-1.109,3.437-.924.643.096,1.239.313,1.766.693-.17-.123.809.874.487.447,1.539,2.038,1.545,5.089,1.362,7.516-.196,2.601-1.086,5.199-2.306,7.497-1.194,2.249-3.535,5.682-6.529,5.27-1.282-.176-2.577.31-2.952,1.676-.308,1.121.384,2.775,1.676,2.952,7.642,1.051,12.107-6.341,14.085-12.679,1.632-5.228,1.669-13.404-3.402-16.824-3.376-2.277-8.076-1.661-11.02.982-2.303,2.068,1.1,5.454,3.394,3.394h0Z"/><path class="f" d="M97.167,67.155c-2.751-2.509-6.739-3.104-10.124-1.528-2.458,1.144-3.926,3.457-4.619,6.006-1.627,5.982-.126,12.948,3.243,18.084,2.273,3.465,5.904,6.624,10.337,6.05,1.285-.166,2.4-.984,2.4-2.4,0-1.168-1.105-2.568-2.4-2.4-3.3.427-5.512-2.3-6.949-4.94-1.266-2.325-2.194-5.004-2.393-7.651-.186-2.469-.164-5.516,1.359-7.606.095-.132.076-.106-.057.08.099-.115.203-.225.311-.332.048-.042.534-.428.3-.264.492-.345,1.005-.531,1.595-.638,1.291-.234,2.622.038,3.604.933,2.279,2.078,5.683-1.307,3.394-3.394h0Z"/><path class="f" d="M153.135,119.654v4.181c0,1.684-.072,3.444.496,5.057,1.097,3.114,3.39,5.245,6.228,6.814,3.316,1.834,7.063,3.001,10.588,4.392,1.206.476,2.635-.522,2.952-1.676.374-1.363-.466-2.475-1.676-2.952-2.913-1.149-6.005-2.16-8.695-3.514-1.086-.547-2.241-1.196-3.124-1.972-.801-.704-1.476-1.692-1.747-2.665-.359-1.29-.222-2.751-.222-4.116v-3.548c0-3.089-4.8-3.094-4.8,0h0Z"/><path class="f" d="M114.845,120.594v3.783c0,.725.033,1.466-.051,2.188-.027.234-.242.998-.341,1.211-.508,1.093-.942,1.713-1.768,2.373-1.003.802-2.163,1.439-3.316,1.995-2.518,1.213-5.546,2.234-8.321,3.326-1.205.474-2.046,1.607-1.676,2.952.316,1.148,1.739,2.154,2.952,1.676,3.395-1.336,6.971-2.481,10.2-4.177,2.714-1.426,5.053-3.34,6.285-6.207,1.219-2.837.837-6.096.837-9.12,0-1.297-1.103-2.4-2.4-2.4s-2.4,1.098-2.4,2.4h0Z"/><path class="e" d="M104.233,244.388c-8.877,2.554-44.248,12.731-44.248,12.731l-6.425-3.284c-7.908-3.389-14.401-10.605-13.963-20.722.361-8.334,2.643-17.442,3.972-22.667,4.083-16.054,11.5-40.25,15.306-46.389,4.198-6.772,10.694-12.743,17.528-16.194,7.133-3.602,14.843-6.818,24.397-9.972.711-.235,1.439-.492,2.166-.757.173.135.266.208.266.208,7.212,5.639,19.815,10.114,32.935,10.153,13.12-.039,25.722-4.513,32.935-10.153l.37-.306c1.7.621,3.432,1.247,4.599,1.695,8.773,3.367,16.917,6.458,24.25,10.389,6.748,3.617,12.597,8.847,16.875,15.569,2.288,3.595,5.794,12.003,7.108,15.986,3.021,9.159,5.596,19.242,9.073,31.611,1.459,5.19,2.917,12.719,3.278,21.052.438,10.117-5.667,18.448-13.889,20.781l-7.889,3-41.333-13.36c-20.283.018-45.308.036-65.306.053l-2.002.576Z"/><path class="f" d="M58.805,227.643c4.91-2.128,10.605-3.512,15.821-3.861,1.293-.087,2.4-1.041,2.4-2.4,0-1.232-1.1-2.487-2.4-2.4-6.3.423-12.459,2.01-18.244,4.517-1.189.516-1.459,2.261-.861,3.284.719,1.229,2.09,1.379,3.284.861h0Z"/><path class="f" d="M106.235,246.212c17.071-.015,34.142-.027,51.212-.041,4.698-.004,9.396-.008,14.093-.012,3.088-.003,3.094-4.803,0-4.8-17.12.015-34.24.028-51.36.041-4.648.004-9.297.008-13.945.012-3.088.003-3.094,4.803,0,4.8h0Z"/><path class="f" d="M194.28,182.563c-.81,15.258-2.061,30.49-2.894,45.747-.168,3.087,4.632,3.077,4.8,0,.833-15.257,2.085-30.489,2.894-45.747.164-3.087-4.637-3.078-4.8,0h0Z"/><path class="f" d="M164.444,137.684c4.284,1.769,8.699,3.244,13.024,4.913,5.458,2.106,10.905,4.257,16.167,6.822,4.701,2.292,9.122,4.947,12.933,8.562,3.407,3.231,6.236,6.954,8.334,11.154,4.135,8.277,6.735,17.104,9.226,25.982,1.553,5.536,3.05,11.088,4.6,16.626,1.394,4.981,2.456,10.031,3.027,15.176.615,5.551,1.087,11.219-1.569,16.343-2.109,4.069-5.632,7.242-10.06,8.543-2.957.869-1.699,5.503,1.276,4.629,9.716-2.856,15.779-12.411,15.672-22.33-.131-12.02-3.683-23.483-6.842-34.955-2.676-9.715-5.312-19.423-9.41-28.653-2.005-4.515-4.342-8.633-7.552-12.418-3.556-4.192-7.923-7.741-12.698-10.456-5.954-3.386-12.386-5.961-18.75-8.458-5.339-2.094-10.8-3.92-16.099-6.108-1.199-.495-2.639.535-2.952,1.676-.379,1.379.473,2.456,1.676,2.952h0Z"/><path class="f" d="M73.742,179.585c.676,10.069,1.672,20.115,2.372,30.182.09,1.293,1.039,2.4,2.4,2.4,1.229,0,2.49-1.1,2.4-2.4-.7-10.067-1.697-20.113-2.372-30.182-.087-1.293-1.041-2.4-2.4-2.4-1.232,0-2.487,1.1-2.4,2.4h0Z"/><path class="f" d="M107.117,133.055c-5.977,2.103-12.003,4.139-17.897,6.467-5.345,2.112-10.793,4.352-15.788,7.216-5.113,2.932-9.705,6.927-13.371,11.537-2.547,3.202-4.381,6.454-5.928,10.211-3.687,8.953-6.458,18.324-9.141,27.616-2.959,10.247-5.928,20.642-7.282,31.243-.796,6.225-.793,12.298,2.395,17.902,2.728,4.796,7.223,8.472,12.245,10.66,1.187.517,2.575.35,3.284-.861.594-1.016.334-2.763-.861-3.284-3.987-1.738-7.639-4.369-10.004-8.078-2.695-4.227-3.01-8.79-2.557-13.668.943-10.141,3.868-20.139,6.629-29.91,2.621-9.273,5.396-18.55,8.823-27.562,1.101-2.895,2.046-5.411,3.839-8.147,3.02-4.606,7.038-8.679,11.589-11.781,4.891-3.335,10.552-5.697,16.02-7.912,6.334-2.566,12.837-4.754,19.282-7.021,1.222-.43,2.037-1.64,1.676-2.952-.326-1.185-1.724-2.108-2.952-1.676h0Z"/><path class="f" d="M2.318,246.327c12.519,0,25.037-.055,37.556-.056,3.089,0,3.094-4.8,0-4.8-12.519,0-25.037.055-37.556.056-3.089,0-3.094,4.8,0,4.8h0Z"/><path class="f" d="M233.318,246.324c9.976,0,19.952-.034,29.928-.047,2.802-.004,5.604-.007,8.406-.007,3.089,0,3.094-4.8,0-4.8-10.862,0-21.723.029-32.585.047-1.916.003-3.832.007-5.749.007-3.089,0-3.094,4.8,0,4.8h0Z"/><path class="f" d="M101.533,139.039c7.337,5.674,16.525,8.869,25.647,10.162,10.292,1.459,20.87.426,30.643-3.173,4.655-1.715,9.044-3.95,12.973-6.989,1.026-.794.835-2.56,0-3.394-1.013-1.013-2.365-.796-3.394,0-6.569,5.08-15.196,7.73-23.308,8.896-9.304,1.337-18.898.216-27.736-2.933-4.019-1.432-8.041-3.341-11.431-5.963-1.024-.792-2.396-.998-3.394,0-.826.826-1.031,2.597,0,3.394h0Z"/><path class="e" d="M187.828,278.293c-.551.41-1.102.796-1.64,1.139-1.245.794-4.121,1.797-6.026.838-1.18-.594-1.832-1.641-1.997-2.766-.101.067-.156.103-.156.103-2.404,1.595-6.368,2.541-8.694.716-1.354-1.062-2.302-4.114-.869-6.441.192-.391.465-.818.806-1.274-1.265.576-3.646,1.367-5.197-1.463-1.026-1.874-.372-4.893,1.826-7.243.83-.887,2.528-3.132,4.239-4.802.367-.356.74-.71,1.115-1.061l-1.644-.155c-1.195.136-2.711-.895-3.369-2.01-.556-.942-.495-2.473-.196-3.443.698-2.262,4.325-4.893,8.098-7.154,4.032-2.416,6.938-3.445,11.272-4.287,4.094-.626,6.924-.859,11.08-.42,3.759.397,6.476,1.989,9.245,3.626,1.669.987,5.297,4.456,6.236,6.205,1.695,3.156,2.658,6.129,2.585,9.079-.122,4.896-1.224,7.708-4.099,11.042-1.673,1.94-4.609,4.917-6.521,6.604-2.682,2.366-5.354,2.799-7.354,2.065-1.609-.59-1.944-3.545-1.375-4.753,0,0,.054-.114.108-.229l-.054.043c-.603.472-1.131.885-1.524,1.196-1.378,1.092-3.634,3.163-5.895,4.844Z"/><path class="f" d="M181.708,255.131c-2.93,2.563-5.741,5.25-8.542,7.952-2.466,2.379-5.391,4.769-6.959,7.883-1.668,3.314-.875,8.058,2.616,9.884,3.257,1.703,7.444.724,10.398-1.17,2.592-1.662.188-5.818-2.423-4.145-1.027.658-2.144,1.148-3.331,1.329-.386.059-1.19.076-1.441.041-.274-.038-.576-.112-.833-.22.244.103-.694-.48-.348-.202-.125-.101-.384-.492-.464-.689-.234-.579-.326-1.133-.231-1.758.131-.858.848-1.82,1.353-2.43,1.848-2.229,4.054-4.164,6.135-6.171,2.44-2.355,4.91-4.677,7.463-6.91.976-.854.873-2.521,0-3.394-.969-.969-2.416-.856-3.394,0h0Z"/><path class="f" d="M167.611,268.675c-.085.022-.719.128-.18.074-.18.018-.361.022-.541.013.064.003-.136-.029-.157-.049-.159-.149-.285-.31-.421-.466l-.184-.313c.055.177.056.185.002.024-.072-.19-.127-.396-.158-.598.058.374.013-.398.013-.403.053-1.678,1.51-3.221,2.682-4.625,3.259-3.907,7.08-7.185,10.944-10.475.987-.841.865-2.529,0-3.394-.978-.978-2.404-.843-3.394,0-4.564,3.886-8.985,7.825-12.707,12.548-1.84,2.335-3.036,5.65-1.875,8.559,1.207,3.023,4.105,4.564,7.252,3.732,2.984-.789,1.718-5.42-1.276-4.629h0Z"/><path class="f" d="M190.198,260.215c-3.168,2.811-6.385,5.569-9.43,8.516-2.677,2.59-6.028,5.951-4.77,10.042,1.434,4.662,6.683,4.937,10.479,3.216,1.776-.805,3.343-2.182,4.842-3.404,1.383-1.128,2.707-2.326,4.101-3.439,2.707-2.163,5.54-4.187,8.132-6.49.969-.861.879-2.516,0-3.394-.963-.963-2.422-.864-3.394,0-2.023,1.798-4.206,3.425-6.34,5.087-2.256,1.758-4.382,3.671-6.631,5.436-1.117.876-2.312,1.807-3.589,2.199-.996.305-2.325.522-2.868-.304-.478-.727-.191-1.348.462-2.292.911-1.32,2.127-2.457,3.284-3.563,2.958-2.829,6.058-5.5,9.118-8.216.97-.861.878-2.516,0-3.394-.963-.963-2.422-.863-3.394,0h0Z"/><path class="f" d="M169.592,253.485c-1.004.034-1.486-.969-1.373-1.877.114-.916.945-1.759,1.797-2.533,2.6-2.36,5.885-4.273,9.071-5.723,2.936-1.336,6.201-2.028,9.392-2.376,3.365-.367,7.022-.48,10.296.498,2.502.748,5.298,2.271,7.084,3.804,2.228,1.911,3.825,3.635,4.97,6.25,1.286,2.938,1.637,6.08,1.002,9.228-.526,2.605-1.85,4.695-3.602,6.656-1.158,1.296-2.371,2.545-3.61,3.764-1.204,1.186-2.414,2.48-3.908,3.299-.583.32-1.225.559-1.89.627-.215.022-.659.021-.762.008-.105-.013-.789-.225-.455-.046.257.138-.06-.056-.163-.31.077.189-.103-.534-.089-.443-.082-.554-.073-.677.154-1.235.49-1.201-.532-2.638-1.676-2.952-1.375-.378-2.46.471-2.952,1.676-.606,1.484-.397,3.388.191,4.839.723,1.784,2.117,2.841,4.014,3.146,4.44.712,7.837-2.181,10.794-5.081,2.647-2.595,5.566-5.376,7.218-8.745,1.751-3.571,2.231-7.839,1.561-11.741-1.31-7.627-7.108-13.347-13.976-16.371-4.194-1.846-8.852-2.163-13.38-1.754-4.379.396-8.623,1.288-12.637,3.114-2.276,1.035-4.445,2.345-6.51,3.752-2.013,1.371-4.049,2.881-5.469,4.891-1.26,1.784-1.67,4.289-.926,6.364.829,2.312,3.355,4.155,5.832,4.071,3.08-.105,3.095-4.905,0-4.8h0Z"/><path class="f" d="M174.599,280.437c2.629,12.92,5.259,25.84,7.78,38.781.248,1.273,1.771,2.001,2.952,1.676,1.33-.365,1.925-1.676,1.676-2.952-2.522-12.941-5.151-25.862-7.78-38.781-.259-1.271-1.764-2.003-2.952-1.676-1.322.363-1.936,1.678-1.676,2.952h0Z"/><path class="f" d="M88.774,320.981h95.919c3.089,0,3.094-4.8,0-4.8h-95.919c-3.089,0-3.094,4.8,0,4.8h0Z"/><path class="f" d="M91.088,319.219c3.011-15.34,6.156-30.654,9.247-45.979.735-3.643,1.466-7.287,2.187-10.933.251-1.27-.362-2.591-1.676-2.952-1.18-.324-2.7.398-2.952,1.676-2.877,14.554-5.881,29.083-8.797,43.63-.887,4.426-1.767,8.853-2.637,13.282-.249,1.271.361,2.591,1.676,2.952,1.179.324,2.701-.398,2.952-1.676h0Z"/><path class="f" d="M113.361,259.957h51.442c3.089,0,3.094-4.8,0-4.8h-51.442c-3.089,0-3.094,4.8,0,4.8h0Z"/><path class="f" d="M79.535,310.084c-3.534-.408-7.062-.906-10.572-1.484l1.434,3.526c5.795-10.472,11.597-20.941,17.38-31.42,1.493-2.707-2.65-5.131-4.145-2.423-5.783,10.479-11.585,20.948-17.38,31.42-.681,1.231-.151,3.265,1.434,3.526,3.933.647,7.889,1.199,11.848,1.656,1.29.149,2.4-1.21,2.4-2.4,0-1.421-1.107-2.251-2.4-2.4h0Z"/><path class="f" d="M102.125,236.668c-5.078-9.076-10.714-19.318-12.839-22.692-.974-1.547-2.151-1.91-3.227-1.725-1.055.182-2.493.855-3.152,1.66-1.014,1.237-.836,2.593-.213,3.588,6.577,10.501,12.79,20.537,15.812,25.568,2.946,4.903,11.087,18.286,14.945,24.442.754,1.204,2.346,1.55,3.536.774,1.102-.719,1.474-2.155.855-3.316-3.096-5.809-9.244-16.727-15.718-28.299Z"/><path class="e" d="M102.955,235.338c-2.093-1.462-4.355-2.161-4.958-2.304-1.379-.327-2.623-.61-4.045-.595-1.744.018-3.476.199-5.203.44-1.872.261-6.406.674-9.819.468-1.744-.105-4.496-.061-5.936.928-2.369,1.628-4.41,3.467-5.799,5.533-2.921,4.344-4.149,7.256-5.853,12.206-.571,1.658-.403,5.055,1.039,6.052,2.954,2.043,9.859,9.42,13.866,11.245,1.455.662,3.302,1.182,4.9,1.192,2.14.012,4.798-1.126,4.746-4.631,1.584,1.189,2.744,1.563,4.936,1.554.947-.004,2.133-.336,2.946-.819,1.156-.687,2.308-2.888,2.125-4.823l-.034-.356c.339.275.688.55,1.043.829,2.449,1.919,6.197,1.022,7.452-.255.983-1,2.208-4.124,1.371-6.324l-.118-.285c.213.194.436.385.662.576.95.808,2.196,1.229,3.419,1.473s2.571.102,3.582-.628c1.487-1.073,1.908-3.183,1.494-4.969-.414-1.786-1.501-3.331-2.565-4.824-2.198-3.086-6.561-9.221-9.253-11.683"/><path class="f" d="M77.352,261.386c1.724,1.768,3.528,3.453,5.423,5.037,1.671,1.396,3.371,2.791,5.573,3.192,2.305.42,4.981.274,6.94-1.148,2.019-1.467,3.172-4.213,3.013-6.683-.083-1.294-1.043-2.4-2.4-2.4-1.235,0-2.484,1.1-2.4,2.4.014.215.017.423.012.638-.005.218.056-.109-.033.261-.051.212-.104.42-.172.627-.032.096-.229.527-.095.256-.11.221-.235.427-.361.638-.085.143-.203.253-.034.061-.07.079-.548.485-.103.171-.115.081-.239.146-.361.216-.464.264.159.002-.383.153-.172.048-.345.093-.516.144-.233.069-.424.081-.902.076-.257-.003-.512-.022-.768-.031-.19-.006-.319-.028-.053.01-.386-.055-.755-.159-1.125-.276-.333-.105.459.266-.092-.037-.157-.086-.317-.166-.471-.257-.277-.163-.702-.455-.841-.559-.54-.405-1.364-1.119-1.988-1.659-1.551-1.342-3.036-2.756-4.468-4.225-.905-.928-2.486-.908-3.394,0-.929.929-.908,2.463,0,3.394h0Z"/><path class="f" d="M84.565,254.809c2.31,2.127,4.644,4.227,7.054,6.24,2.106,1.758,4.33,4.086,7.133,4.559,2.523.425,5.602-.087,7.423-2.034,1.96-2.096,2.792-5.833,1.874-8.534-.417-1.227-1.65-2.034-2.952-1.676-1.196.329-2.095,1.72-1.676,2.952.322.947.238,1.566-.082,2.606-.155.503-.156.542-.47,1.078-.034.059-.374.538-.16.273.272-.337-.413.373-.061.071.259-.223-.244.137-.315.181-.091.052-.185.099-.28.143.202-.081.222-.091.058-.03-.414.146-.849.274-1.286.328.401-.049-.308,0-.385,0-.258.002-.532,0-.787-.037.338.049-.418-.124-.406-.121-.575-.165.11.113-.427-.167-.799-.417-1.597-1.174-2.37-1.801-.857-.697-1.707-1.404-2.547-2.12-2.021-1.723-3.991-3.504-5.944-5.303-2.269-2.09-5.672,1.296-3.394,3.394h0Z"/><path class="f" d="M83.54,266.048c-.111.724-.265,1.296-.774,1.654-.412.289-1.061.405-1.489.399-1.844-.025-3.638-.642-5.19-1.622-3.046-1.924-5.648-4.567-8.305-6.977-1.207-1.095-2.418-2.193-3.725-3.169-.104-.077-.214-.153-.315-.234.378.303.02.029-.01-.041.068.158-.095-.328-.137-.51-.156-.667-.212-1.59-.117-2.207.256-1.664,1.244-3.791,1.966-5.463.867-2.01,1.93-3.927,3.111-5.769,1.238-1.932,2.729-3.574,4.557-4.973.745-.57,1.4-1.054,2.314-1.249.942-.201,1.931-.198,2.891-.167,4.253.135,8.338-.274,12.557-.698,3.841-.386,8.479-.058,11.319,2.938,2.629,2.773,4.851,5.945,7.071,9.046,1.234,1.724,3.051,3.68,3.256,5.87.214,2.28-1.621,2.543-3.4,1.942-1.228-.415-2.127-1.385-3.082-2.224-1.079-.948-2.145-1.91-3.21-2.874-2.3-2.085-4.594-4.174-6.951-6.195-.984-.843-2.428-.966-3.394,0-.863.863-.988,2.547,0,3.394,2.471,2.118,4.872,4.313,7.285,6.497,2.212,2.001,4.488,4.602,7.289,5.735,2.656,1.074,5.955,1.237,8.188-.851,2.124-1.986,2.519-5.241,1.609-7.899-.821-2.397-2.432-4.408-3.894-6.441-1.424-1.981-2.877-3.942-4.385-5.86-1.355-1.723-2.767-3.702-4.592-4.957-1.988-1.367-4.335-2.255-6.692-2.724-1.589-.316-3.145-.42-4.761-.328-.711.04-1.42.105-2.128.183-.394.044-.787.092-1.179.144.175-.023-1.57.202-.912.122-2.408.291-4.84.461-7.266.465-2.511.004-5.116-.365-7.558.43-2.587.843-4.992,3.082-6.761,5.094-3.594,4.089-5.805,9.339-7.551,14.43-.704,2.052-.764,4.506.016,6.55.452,1.185,1.126,1.982,2.129,2.736.344.259.063.039-.004-.012.181.138.357.285.533.43.37.305.732.62,1.093.937,3.619,3.181,7.057,6.947,11.273,9.358,2.517,1.439,5.734,2.325,8.625,1.774,2.734-.521,4.905-2.633,5.331-5.406.196-1.28-.324-2.581-1.676-2.952-1.136-.312-2.754.387-2.952,1.676h0Z"/></g></g></svg>